<?xml version="1.0" encoding="utf-8"?>
<!-- Generator: Adobe Illustrator 25.4.1, SVG Export Plug-In . SVG Version: 6.00 Build 0)  -->
<svg version="1.1" id="Layer_1" xmlns="http://www.w3.org/2000/svg" xmlns:xlink="http://www.w3.org/1999/xlink" x="0px" y="0px"
	 viewBox="0 0 331 107.3" style="enable-background:new 0 0 331 107.3;" xml:space="preserve">
<style type="text/css">
	.st0{fill:none;stroke:#FF66C4;stroke-width:8;}
	.st1{fill:none;}
	.st2{fill:#FF66C4;}
	.st3{font-family:'SitkaBanner-Bold';}
	.st4{font-size:50px;}
	.st5{letter-spacing:6;}
	.st6{fill:#1E0B7C;}
	.st7{font-size:18px;}
	.st8{letter-spacing:2;}
</style>
<g id="Logo" transform="translate(-647 -386.809)">
	<path id="Path_1" class="st0" d="M696,418.2V480"/>
	<g id="Path_2" transform="translate(682.5 415.614)">
		<path class="st1" d="M13.5-14.1C33.1-14.1,49,2.3,49,22.5c0,10-4,19.6-11.1,26.6c-6.5,6.4-15.3,10-24.4,10
			c-10.1,0-19.7-4.4-26.3-12c-6-6.8-9.2-15.5-9.2-24.6C-22,2.3-6.1-14.1,13.5-14.1z"/>
		<path class="st2" d="M13.5-14.1c-1.4,0-2.7,0.1-4,0.2c0,0,0,0,0,0L13.5-14.1z"/>
		<path class="st2" d="M9.5-13.9c0,0-0.1,0-0.1,0L9.5-13.9C9.5-13.9,9.5-13.9,9.5-13.9z"/>
		<path class="st2" d="M13.5-14.1l-4,0.2c0,2.4,0,4.7,0,7.1c1.3-0.2,2.6-0.3,4-0.3C29.2-7.1,42,6.2,42,22.5c0,8.2-3.2,15.8-9,21.6
			c-5.1,5.1-12.2,8-19.5,8c-8,0-15.5-3.4-21.1-9.7c-0.8-0.9-1.5-1.8-2.1-2.7l-8,0.2c1.4,2.6,3,5,4.9,7.2c6.7,7.5,16,12,26.3,12
			c9.5,0,18.2-3.9,24.4-10C44.8,42.2,49,32.9,49,22.5C49,2.3,33.1-14.1,13.5-14.1z"/>
	</g>
	<text transform="matrix(1 0 0 1 737.9872 449.8858)" class="st2 st3 st4 st5">i</text>
	<text transform="matrix(1 0 0 1 758.148 449.8858)" class="st6 st3 st4 st5">A</text>
	<text transform="matrix(1 0 0 1 793.1976 449.8858)" class="st2 st3 st4 st5">gnosis</text>
	<text transform="matrix(1 0 0 1 778.9873 422.8858)" class="st6 st3 st7 st8">Radio-imaging</text>
	<text transform="matrix(1 0 0 1 821.9873 462.8858)" class="st6 st3 st7 st8">ccompaniment</text>
</g>
</svg>
